<?xml version="1.0" standalone="no"?><!DOCTYPE svg PUBLIC "-//W3C//DTD SVG 1.1//EN" "http://www.w3.org/Graphics/SVG/1.1/DTD/svg11.dtd"><svg t="1630246106189" class="icon" viewBox="0 0 1024 1024" version="1.1" xmlns="http://www.w3.org/2000/svg" p-id="3800" width="16" height="16" xmlns:xlink="http://www.w3.org/1999/xlink"><defs><style type="text/css"></style></defs><path d="M879.879602 321.590346L701.861162 143.570883c-25.77606-25.77606-67.566862-25.77606-93.342921 0L141.160997 610.928127l0.046049 0.046049c-9.337669 9.383718-15.110139 22.317285-15.11014 36.601616v197.937094c0 28.659737 23.233144 51.892881 51.892881 51.892881h197.937095c14.482853 0 27.572986-5.938246 36.986379-15.506159L879.879602 414.933267c25.77606-25.77606 25.77606-67.566862 0-93.342921z m-682.894182 519.501857c-8.077979 0-14.626115-6.481621-14.626116-14.477736v-84.159771l99.650581 98.637507h-85.024465z m389.41815-223.136009l-21.710464 21.710464-173.789115 173.789115c-12.987802 12.987802-34.045397 12.987802-47.033199 0L209.995735 679.580716c-12.987802-12.987802-12.987802-34.045397 0-47.033199L383.78485 458.758402l21.710464-21.710465 23.5166-23.516599 23.5166 23.516599 133.875056 133.875057 23.5166 23.5166-23.5166 23.5166z m68.743664-68.743664L474.238978 368.304274l45.227064-45.227064 180.908256 180.908256-45.227064 45.227064z m90.453105-90.454128L564.693106 277.850146l66.937528-66.937529c12.987802-12.987802 34.045397-12.987802 47.0332 0l133.875057 133.875057c12.987802 12.987802 12.987802 34.045397 0 47.033199l-66.938552 66.937529z" p-id="3801"></path></svg>